<?xml version="1.0" encoding="UTF-8"?>
<svg xmlns="http://www.w3.org/2000/svg" xmlns:xlink="http://www.w3.org/1999/xlink" width="30px" height="30px" viewBox="0 0 30 30" version="1.1">
<g id="surface1">
<path style=" stroke:none;fill-rule:nonzero;fill:rgb(80%,97.254902%,95.294118%);fill-opacity:1;" d="M 5.625 21.375 C 6.796875 21.375 7.824219 21.96875 8.429688 22.875 L 19.5 22.875 L 19.5 8.625 L 12 8.625 L 12 13.125 L 9.75 10.875 L 7.5 13.125 L 7.5 8.625 L 0 8.625 L 0 16.875 L 2.25 16.875 L 2.25 21.375 L 0 21.375 L 0 22.875 L 2.820312 22.875 C 3.425781 21.96875 4.453125 21.375 5.625 21.375 Z M 5.625 21.375 "/>
<path style=" stroke:none;fill-rule:nonzero;fill:rgb(0%,84.313725%,87.45098%);fill-opacity:1;" d="M 25.5 10.875 L 19.5 10.875 L 19.5 22.875 L 21.570312 22.875 C 22.175781 21.96875 23.203125 21.375 24.375 21.375 C 25.546875 21.375 26.574219 21.96875 27.179688 22.875 L 30 22.875 L 30 21.375 L 28.5 21.375 L 27.75 19.125 L 30 19.125 L 30 17.625 Z M 21.75 17.625 L 21.75 13.125 L 24.296875 13.125 L 27.296875 17.625 Z M 21.75 17.625 "/>
<path style=" stroke:none;fill-rule:nonzero;fill:rgb(100%,100%,100%);fill-opacity:1;" d="M 21.75 13.125 L 21.75 17.625 L 27.296875 17.625 L 24.296875 13.125 Z M 21.75 13.125 "/>
<path style=" stroke:none;fill-rule:nonzero;fill:rgb(47.058824%,38.039216%,27.058824%);fill-opacity:1;" d="M 8.429688 22.875 C 8.789062 23.410156 9 24.054688 9 24.75 C 9 24.875 8.992188 25 8.980469 25.125 L 15 25.125 L 15 22.875 Z M 8.429688 22.875 "/>
<path style=" stroke:none;fill-rule:nonzero;fill:rgb(31.372549%,25.490196%,18.039216%);fill-opacity:1;" d="M 21.570312 22.875 L 15 22.875 L 15 25.125 L 21.019531 25.125 C 21.007812 25 21 24.875 21 24.75 C 21 24.054688 21.210938 23.410156 21.570312 22.875 Z M 21.570312 22.875 "/>
<path style=" stroke:none;fill-rule:nonzero;fill:rgb(47.058824%,38.039216%,27.058824%);fill-opacity:1;" d="M 4.5 24.75 C 4.5 24.128906 5.003906 23.625 5.625 23.625 L 5.625 21.375 C 4.453125 21.375 3.425781 21.96875 2.820312 22.875 L 0 22.875 L 0 25.125 L 2.269531 25.125 C 2.457031 26.8125 3.886719 28.125 5.625 28.125 L 5.625 25.875 C 5.003906 25.875 4.5 25.371094 4.5 24.75 Z M 4.5 24.75 "/>
<path style=" stroke:none;fill-rule:nonzero;fill:rgb(31.372549%,25.490196%,18.039216%);fill-opacity:1;" d="M 8.429688 22.875 C 7.824219 21.96875 6.796875 21.375 5.625 21.375 L 5.625 23.625 C 6.246094 23.625 6.75 24.128906 6.75 24.75 C 6.75 25.371094 6.246094 25.875 5.625 25.875 L 5.625 28.125 C 7.363281 28.125 8.792969 26.8125 8.980469 25.125 C 8.992188 25 9 24.875 9 24.75 C 9 24.054688 8.789062 23.410156 8.429688 22.875 Z M 8.429688 22.875 "/>
<path style=" stroke:none;fill-rule:nonzero;fill:rgb(47.058824%,38.039216%,27.058824%);fill-opacity:1;" d="M 23.25 24.75 C 23.25 24.128906 23.753906 23.625 24.375 23.625 L 24.375 21.375 C 23.203125 21.375 22.175781 21.96875 21.570312 22.875 C 21.210938 23.410156 21 24.054688 21 24.75 C 21 24.875 21.007812 25 21.019531 25.125 C 21.207031 26.8125 22.636719 28.125 24.375 28.125 L 24.375 25.875 C 23.753906 25.875 23.25 25.371094 23.25 24.75 Z M 23.25 24.75 "/>
<path style=" stroke:none;fill-rule:nonzero;fill:rgb(31.372549%,25.490196%,18.039216%);fill-opacity:1;" d="M 24.375 21.375 L 24.375 23.625 C 24.996094 23.625 25.5 24.128906 25.5 24.75 C 25.5 25.371094 24.996094 25.875 24.375 25.875 L 24.375 28.125 C 26.113281 28.125 27.542969 26.8125 27.730469 25.125 L 30 25.125 L 30 22.875 L 27.179688 22.875 C 26.574219 21.96875 25.546875 21.375 24.375 21.375 Z M 24.375 21.375 "/>
<path style=" stroke:none;fill-rule:nonzero;fill:rgb(100%,100%,100%);fill-opacity:1;" d="M 6.75 24.75 C 6.75 25.371094 6.246094 25.875 5.625 25.875 C 5.003906 25.875 4.5 25.371094 4.5 24.75 C 4.5 24.128906 5.003906 23.625 5.625 23.625 C 6.246094 23.625 6.75 24.128906 6.75 24.75 Z M 6.75 24.75 "/>
<path style=" stroke:none;fill-rule:nonzero;fill:rgb(100%,100%,100%);fill-opacity:1;" d="M 25.5 24.75 C 25.5 25.371094 24.996094 25.875 24.375 25.875 C 23.753906 25.875 23.25 25.371094 23.25 24.75 C 23.25 24.128906 23.753906 23.625 24.375 23.625 C 24.996094 23.625 25.5 24.128906 25.5 24.75 Z M 25.5 24.75 "/>
<path style=" stroke:none;fill-rule:nonzero;fill:rgb(100%,59.607843%,6.666667%);fill-opacity:1;" d="M 0 19.125 L 2.25 19.125 L 2.25 21.375 L 0 21.375 Z M 0 19.125 "/>
<path style=" stroke:none;fill-rule:nonzero;fill:rgb(0%,84.313725%,87.45098%);fill-opacity:1;" d="M 0 16.875 L 2.25 16.875 L 2.25 19.125 L 0 19.125 Z M 0 16.875 "/>
<path style=" stroke:none;fill-rule:nonzero;fill:rgb(100%,59.607843%,6.666667%);fill-opacity:1;" d="M 28.5 21.375 L 30 21.375 L 30 19.125 L 27.75 19.125 Z M 28.5 21.375 "/>
<path style=" stroke:none;fill-rule:nonzero;fill:rgb(100%,85.490196%,26.666667%);fill-opacity:1;" d="M 13.125 8.625 C 14.988281 8.625 16.5 7.113281 16.5 5.25 C 16.5 3.386719 14.988281 1.875 13.125 1.875 C 11.261719 1.875 9.75 3.386719 9.75 5.25 C 9.75 3.386719 8.238281 1.875 6.375 1.875 C 4.511719 1.875 3 3.386719 3 5.25 C 3 7.113281 4.511719 8.625 6.375 8.625 Z M 12 5.25 C 12 4.628906 12.503906 4.125 13.125 4.125 C 13.746094 4.125 14.25 4.628906 14.25 5.25 C 14.25 5.871094 13.746094 6.375 13.125 6.375 L 12 6.375 Z M 5.25 5.25 C 5.25 4.628906 5.753906 4.125 6.375 4.125 C 6.996094 4.125 7.5 4.628906 7.5 5.25 L 7.5 6.375 L 6.375 6.375 C 5.753906 6.375 5.25 5.871094 5.25 5.25 Z M 5.25 5.25 "/>
<path style=" stroke:none;fill-rule:nonzero;fill:rgb(100%,59.607843%,6.666667%);fill-opacity:1;" d="M 7.5 8.625 L 7.5 13.125 L 9.75 10.875 L 12 13.125 L 12 8.625 Z M 7.5 8.625 "/>
</g>
</svg>
