<?xml version="1.0" encoding="UTF-8"?>
<svg xmlns="http://www.w3.org/2000/svg" xmlns:xlink="http://www.w3.org/1999/xlink" width="30px" height="30px" viewBox="0 0 30 30" version="1.1">
<g id="surface1">
<path style=" stroke:none;fill-rule:nonzero;fill:rgb(47.45098%,47.45098%,47.45098%);fill-opacity:1;" d="M 9.308594 25.605469 C 9.308594 24.175781 8.152344 23.015625 6.722656 23.015625 C 5.296875 23.015625 4.136719 24.175781 4.136719 25.605469 C 4.136719 27.03125 5.296875 28.191406 6.722656 28.191406 C 8.152344 28.191406 9.308594 27.03125 9.308594 25.605469 "/>
<path style=" stroke:none;fill-rule:nonzero;fill:rgb(47.45098%,47.45098%,47.45098%);fill-opacity:1;" d="M 29.484375 25.605469 C 29.484375 24.175781 28.324219 23.015625 26.898438 23.015625 C 25.46875 23.015625 24.308594 24.175781 24.308594 25.605469 C 24.308594 27.03125 25.46875 28.191406 26.898438 28.191406 C 28.324219 28.191406 29.484375 27.03125 29.484375 25.605469 "/>
<path style=" stroke:none;fill-rule:nonzero;fill:rgb(75.294118%,75.294118%,75.294118%);fill-opacity:1;" d="M 6.722656 26.636719 C 6.152344 26.636719 5.691406 26.175781 5.691406 25.605469 C 5.691406 25.03125 6.152344 24.570312 6.722656 24.570312 C 7.296875 24.570312 7.757812 25.03125 7.757812 25.605469 C 7.757812 26.175781 7.296875 26.636719 6.722656 26.636719 "/>
<path style=" stroke:none;fill-rule:nonzero;fill:rgb(75.294118%,75.294118%,75.294118%);fill-opacity:1;" d="M 26.898438 26.636719 C 26.324219 26.636719 25.863281 26.175781 25.863281 25.605469 C 25.863281 25.03125 26.324219 24.570312 26.898438 24.570312 C 27.46875 24.570312 27.929688 25.03125 27.929688 25.605469 C 27.929688 26.175781 27.46875 26.636719 26.898438 26.636719 "/>
<path style=" stroke:none;fill-rule:nonzero;fill:rgb(77.647059%,58.823529%,40%);fill-opacity:1;" d="M 0 18.363281 L 7.242188 18.363281 L 7.242188 11.121094 L 0 11.121094 Z M 0 18.363281 "/>
<path style=" stroke:none;fill-rule:nonzero;fill:rgb(20%,49.803922%,66.666667%);fill-opacity:1;" d="M 13.964844 4.394531 C 13.964844 2.96875 12.808594 1.808594 11.378906 1.808594 C 9.949219 1.808594 8.792969 2.96875 8.792969 4.394531 C 8.792969 5.824219 9.949219 6.984375 11.378906 6.984375 C 12.808594 6.984375 13.964844 5.824219 13.964844 4.394531 "/>
<path style=" stroke:none;fill-rule:nonzero;fill:rgb(97.254902%,60%,32.941176%);fill-opacity:1;" d="M 24.828125 12.671875 L 23.792969 12.671875 L 22.757812 12.15625 L 22.757812 10.085938 L 23.792969 9.570312 L 24.828125 9.570312 Z M 24.828125 12.671875 "/>
<path style=" stroke:none;fill-rule:nonzero;fill:rgb(28.235294%,62.745098%,86.27451%);fill-opacity:1;" d="M 16.855469 16.234375 C 16.675781 15.652344 16.136719 15.257812 15.527344 15.257812 L 12.929688 15.257812 L 12.929688 12.671875 L 17.53125 12.671875 C 18.046875 12.671875 18.523438 12.320312 18.605469 11.8125 C 18.710938 11.164062 18.214844 10.601562 17.585938 10.601562 L 13.964844 10.601562 L 13.964844 8.792969 C 13.964844 7.792969 13.15625 6.984375 12.15625 6.984375 L 11.121094 6.984375 C 10.121094 6.984375 9.308594 7.792969 9.308594 8.792969 L 9.308594 16.550781 C 9.308594 17.550781 10.121094 18.363281 11.121094 18.363281 L 15 18.363281 L 16.550781 23.535156 L 19.136719 23.535156 Z M 16.855469 16.234375 "/>
<path style=" stroke:none;fill-rule:nonzero;fill:rgb(100%,83.137255%,47.45098%);fill-opacity:1;" d="M 29.242188 20.605469 C 28.53125 19.796875 27.464844 19.398438 26.386719 19.398438 L 25.863281 19.398438 C 25.539062 17.78125 24.425781 16.441406 22.894531 15.832031 L 22.757812 15.777344 L 22.757812 10.085938 L 17.585938 10.085938 L 17.585938 10.605469 C 18.15625 10.605469 18.621094 11.066406 18.621094 11.636719 C 18.621094 12.210938 18.15625 12.671875 17.585938 12.671875 L 17.585938 13.191406 L 20.691406 13.191406 L 20.691406 23.535156 L 12.414062 23.535156 L 13.121094 21.929688 C 13.335938 21.28125 13.449219 20.601562 13.449219 19.917969 C 13.449219 19.058594 12.753906 18.363281 11.894531 18.363281 L 2.070312 18.363281 C 1.210938 18.363281 0.515625 19.058594 0.515625 19.914062 L 0.515625 20.554688 C 0.515625 20.820312 0.667969 21.046875 0.886719 21.195312 C 1.550781 21.636719 1.753906 22.519531 1.347656 23.207031 L 0.6875 24.328125 C 0.378906 24.71875 0.503906 25.296875 0.953125 25.519531 C 1.058594 25.574219 1.179688 25.605469 1.300781 25.605469 L 2.585938 25.605469 C 2.585938 23.320312 4.441406 21.464844 6.722656 21.464844 C 9.003906 21.464844 10.863281 23.320312 10.863281 25.605469 L 22.757812 25.605469 C 22.757812 23.320312 24.617188 21.464844 26.898438 21.464844 C 28.738281 21.464844 29.328125 21.828125 30 22.5 C 30 21.785156 29.710938 21.140625 29.242188 20.605469 "/>
<path style=" stroke:none;fill-rule:nonzero;fill:rgb(90.980392%,83.529412%,69.803922%);fill-opacity:1;" d="M 2.585938 13.191406 L 4.65625 13.191406 L 4.65625 11.121094 L 2.585938 11.121094 Z M 2.585938 13.191406 "/>
<path style=" stroke:none;fill-rule:nonzero;fill:rgb(20%,49.803922%,66.666667%);fill-opacity:1;" d="M 12.929688 13.191406 C 12.074219 13.191406 11.378906 12.492188 11.378906 11.636719 L 11.378906 10.085938 C 11.378906 9.800781 11.609375 9.570312 11.898438 9.570312 C 12.183594 9.570312 12.414062 9.800781 12.414062 10.085938 L 12.414062 11.636719 C 12.414062 11.921875 12.644531 12.15625 12.929688 12.15625 C 13.21875 12.15625 13.449219 12.386719 13.449219 12.671875 C 13.449219 12.957031 13.21875 13.191406 12.929688 13.191406 "/>
</g>
</svg>
