<?xml version="1.0" encoding="UTF-8"?>
<svg xmlns="http://www.w3.org/2000/svg" xmlns:xlink="http://www.w3.org/1999/xlink" width="30px" height="30px" viewBox="0 0 30 30" version="1.1">
<g id="surface1">
<path style=" stroke:none;fill-rule:nonzero;fill:rgb(87.843137%,56.078431%,1.176471%);fill-opacity:1;" d="M 27.902344 14.511719 L 27.902344 22.414062 C 27.902344 24.757812 26.003906 26.65625 23.660156 26.65625 L 5.644531 26.65625 C 3.300781 26.65625 1.402344 24.757812 1.402344 22.414062 L 1.402344 14.511719 Z M 27.902344 14.511719 "/>
<path style=" stroke:none;fill-rule:nonzero;fill:rgb(97.254902%,61.960784%,1.568627%);fill-opacity:1;" d="M 27.902344 14.511719 L 27.902344 22.414062 C 27.902344 24.757812 26.003906 26.65625 23.660156 26.65625 L 5.644531 26.65625 C 3.300781 26.65625 1.402344 24.757812 1.402344 22.414062 L 1.402344 14.511719 Z M 27.902344 14.511719 "/>
<path style=" stroke:none;fill-rule:nonzero;fill:rgb(87.843137%,56.078431%,1.176471%);fill-opacity:1;" d="M 27.199219 14.511719 L 27.199219 21.710938 C 27.199219 24.054688 25.300781 25.953125 22.957031 25.953125 L 4.941406 25.953125 C 3.949219 25.953125 3.039062 25.609375 2.316406 25.039062 C 3.09375 26.023438 4.292969 26.65625 5.644531 26.65625 L 23.660156 26.65625 C 26.003906 26.65625 27.902344 24.757812 27.902344 22.414062 L 27.902344 14.511719 Z M 27.199219 14.511719 "/>
<path style=" stroke:none;fill-rule:nonzero;fill:rgb(87.843137%,56.078431%,1.176471%);fill-opacity:1;" d="M 1.402344 14.511719 L 27.898438 14.511719 L 27.898438 16.371094 L 1.402344 16.371094 Z M 1.402344 14.511719 "/>
<path style=" stroke:none;fill-rule:nonzero;fill:rgb(100%,72.941176%,27.058824%);fill-opacity:1;" d="M 30 13.238281 C 30 13.941406 29.429688 14.511719 28.726562 14.511719 L 15.921875 14.511719 C 15.222656 14.511719 14.652344 13.941406 14.652344 13.238281 C 14.652344 12.535156 15.222656 11.96875 15.921875 11.96875 L 28.726562 11.96875 C 29.429688 11.96875 30 12.535156 30 13.238281 Z M 30 13.238281 "/>
<path style=" stroke:none;fill-rule:nonzero;fill:rgb(87.843137%,56.078431%,1.176471%);fill-opacity:1;" d="M 29.140625 12.035156 C 29.183594 12.167969 29.210938 12.304688 29.210938 12.449219 C 29.210938 13.152344 28.640625 13.722656 27.9375 13.722656 L 15.132812 13.722656 C 14.988281 13.722656 14.851562 13.695312 14.722656 13.652344 C 14.890625 14.152344 15.367188 14.511719 15.921875 14.511719 L 28.726562 14.511719 C 29.429688 14.511719 30 13.941406 30 13.238281 C 30 12.683594 29.640625 12.207031 29.140625 12.035156 Z M 29.140625 12.035156 "/>
<path style=" stroke:none;fill-rule:nonzero;fill:rgb(100%,72.941176%,27.058824%);fill-opacity:1;" d="M 14.582031 13.652344 C 14.351562 14.316406 13.628906 14.671875 12.964844 14.441406 L 0.859375 10.273438 C 0.195312 10.042969 -0.160156 9.320312 0.0703125 8.65625 C 0.296875 7.992188 1.023438 7.636719 1.6875 7.867188 L 13.792969 12.035156 C 14.457031 12.265625 14.8125 12.988281 14.582031 13.652344 Z M 14.582031 13.652344 "/>
<path style=" stroke:none;fill-rule:nonzero;fill:rgb(87.843137%,56.078431%,1.176471%);fill-opacity:1;" d="M 12.964844 13.4375 L 0.859375 9.265625 C 0.507812 9.144531 0.242188 8.882812 0.105469 8.566406 C 0.09375 8.59375 0.0820312 8.625 0.0703125 8.65625 C -0.160156 9.320312 0.195312 10.042969 0.859375 10.273438 L 12.964844 14.441406 C 13.628906 14.671875 14.351562 14.316406 14.582031 13.652344 C 14.6875 13.34375 14.667969 13.015625 14.546875 12.738281 C 14.285156 13.34375 13.597656 13.65625 12.964844 13.4375 Z M 12.964844 13.4375 "/>
<path style=" stroke:none;fill-rule:nonzero;fill:rgb(87.843137%,56.078431%,1.176471%);fill-opacity:1;" d="M 1.402344 21.40625 L 1.402344 22.414062 C 1.402344 22.578125 1.410156 22.734375 1.429688 22.894531 L 5.167969 26.628906 C 5.324219 26.648438 5.480469 26.65625 5.644531 26.65625 L 6.652344 26.65625 Z M 1.402344 21.40625 "/>
<path style=" stroke:none;fill-rule:nonzero;fill:rgb(87.843137%,56.078431%,1.176471%);fill-opacity:1;" d="M 11.8125 26.65625 L 13.273438 26.65625 L 1.402344 14.785156 L 1.402344 16.246094 Z M 11.8125 26.65625 "/>
<path style=" stroke:none;fill-rule:nonzero;fill:rgb(87.843137%,56.078431%,1.176471%);fill-opacity:1;" d="M 18.433594 26.65625 L 19.890625 26.65625 L 7.746094 14.511719 L 6.289062 14.511719 Z M 18.433594 26.65625 "/>
<path style=" stroke:none;fill-rule:nonzero;fill:rgb(87.843137%,56.078431%,1.176471%);fill-opacity:1;" d="M 24.875 26.480469 C 25.230469 26.371094 25.570312 26.21875 25.882812 26.027344 L 14.367188 14.511719 L 12.90625 14.511719 Z M 24.875 26.480469 "/>
<path style=" stroke:none;fill-rule:nonzero;fill:rgb(87.843137%,56.078431%,1.176471%);fill-opacity:1;" d="M 20.984375 14.511719 L 19.527344 14.511719 L 27.878906 22.863281 C 27.890625 22.714844 27.902344 22.566406 27.902344 22.414062 L 27.902344 21.425781 Z M 20.984375 14.511719 "/>
<path style=" stroke:none;fill-rule:nonzero;fill:rgb(87.843137%,56.078431%,1.176471%);fill-opacity:1;" d="M 27.902344 16.269531 L 27.902344 14.808594 L 27.605469 14.511719 L 26.144531 14.511719 Z M 27.902344 16.269531 "/>
<path style=" stroke:none;fill-rule:nonzero;fill:rgb(87.843137%,56.078431%,1.176471%);fill-opacity:1;" d="M 2.25 14.511719 L 1.402344 14.511719 L 1.402344 15.359375 Z M 2.25 14.511719 "/>
<path style=" stroke:none;fill-rule:nonzero;fill:rgb(87.843137%,56.078431%,1.176471%);fill-opacity:1;" d="M 1.402344 21.980469 L 8.871094 14.511719 L 7.410156 14.511719 L 1.402344 20.519531 Z M 1.402344 21.980469 "/>
<path style=" stroke:none;fill-rule:nonzero;fill:rgb(87.843137%,56.078431%,1.176471%);fill-opacity:1;" d="M 15.488281 14.511719 L 14.027344 14.511719 L 2.894531 25.644531 C 3.164062 25.871094 3.457031 26.066406 3.777344 26.222656 Z M 15.488281 14.511719 "/>
<path style=" stroke:none;fill-rule:nonzero;fill:rgb(87.843137%,56.078431%,1.176471%);fill-opacity:1;" d="M 22.109375 14.511719 L 20.648438 14.511719 L 8.503906 26.65625 L 9.964844 26.65625 Z M 22.109375 14.511719 "/>
<path style=" stroke:none;fill-rule:nonzero;fill:rgb(87.843137%,56.078431%,1.176471%);fill-opacity:1;" d="M 27.902344 15.339844 L 27.902344 14.511719 L 27.265625 14.511719 L 15.121094 26.65625 L 16.582031 26.65625 Z M 27.902344 15.339844 "/>
<path style=" stroke:none;fill-rule:nonzero;fill:rgb(87.843137%,56.078431%,1.176471%);fill-opacity:1;" d="M 23.203125 26.65625 L 27.902344 21.957031 L 27.902344 20.496094 L 21.742188 26.65625 Z M 23.203125 26.65625 "/>
<path style=" stroke:none;fill-rule:nonzero;fill:rgb(94.117647%,28.627451%,26.27451%);fill-opacity:1;" d="M 16.023438 16.929688 C 16.023438 17.6875 15.410156 18.300781 14.652344 18.300781 C 13.894531 18.300781 13.28125 17.6875 13.28125 16.929688 L 13.28125 4.714844 C 13.28125 3.957031 13.894531 3.34375 14.652344 3.34375 C 15.410156 3.34375 16.023438 3.957031 16.023438 4.714844 Z M 16.023438 16.929688 "/>
<path style=" stroke:none;fill-rule:nonzero;fill:rgb(66.666667%,9.803922%,12.941176%);fill-opacity:1;" d="M 17.054688 18.691406 C 17.054688 20.015625 15.976562 21.09375 14.652344 21.09375 C 13.324219 21.09375 12.246094 20.015625 12.246094 18.691406 C 12.246094 17.363281 13.324219 16.285156 14.652344 16.285156 C 15.976562 16.285156 17.054688 17.363281 17.054688 18.691406 Z M 17.054688 18.691406 "/>
<path style=" stroke:none;fill-rule:nonzero;fill:rgb(38.823529%,5.882353%,7.45098%);fill-opacity:1;" d="M 16.015625 18.691406 C 16.015625 19.445312 15.40625 20.054688 14.652344 20.054688 C 13.894531 20.054688 13.285156 19.445312 13.285156 18.691406 C 13.285156 17.933594 13.894531 17.324219 14.652344 17.324219 C 15.40625 17.324219 16.015625 17.933594 16.015625 18.691406 Z M 16.015625 18.691406 "/>
</g>
</svg>
